<svg viewBox="0 0 1340 400" xmlns="http://www.w3.org/2000/svg">
  <!-- Fondo -->
  <rect width="1340" height="400" fill="#1a202c"/>
  
  <!-- Python logo estilizado -->
  <g transform="translate(670,200)">
    <path d="M-40,-40 C-40,-60 -20,-60 0,-60 C20,-60 40,-60 40,-40 L40,40 C40,60 20,60 0,60 C-20,60 -40,60 -40,40 Z" fill="#3776ab"/>
    <path d="M-20,-40 C-20,-50 -10,-50 0,-50 C10,-50 20,-50 20,-40 L20,40 C20,50 10,50 0,50 C-10,50 -20,50 -20,40 Z" fill="#ffd43b"/>
  </g>
  
  <!-- Gráficos de datos -->
  <g transform="translate(900,200)" stroke="#4299e1" fill="none" stroke-width="2">
    <path d="M0,0 L30,-30 L60,-10 L90,-50 L120,-20"/>
    <circle cx="0" cy="0" r="3" fill="#4299e1"/>
    <circle cx="30" cy="-30" r="3" fill="#4299e1"/>
    <circle cx="60" cy="-10" r="3" fill="#4299e1"/>
    <circle cx="90" cy="-50" r="3" fill="#4299e1"/>
    <circle cx="120" cy="-20" r="3" fill="#4299e1"/>
  </g>
  
  <!-- Texto -->
  <text x="100" y="180" fill="white" font-family="Arial" font-size="48" font-weight="bold">Python para Data Science</text>
  <text x="100" y="230" fill="#a0aec0" font-family="Arial" font-size="24">Análisis y Visualización de Datos</text>
</svg>
